<?xml version="1.0" encoding="utf-8"?>
<!-- Generator: Adobe Illustrator 24.1.1, SVG Export Plug-In . SVG Version: 6.00 Build 0)  -->
<svg version="1.1" id="Layer_1" xmlns="http://www.w3.org/2000/svg" xmlns:xlink="http://www.w3.org/1999/xlink" x="0px" y="0px"
	 viewBox="0 0 32 40" style="enable-background:new 0 0 32 40;" xml:space="preserve">
<style type="text/css">
	.st0{opacity:0.76;stroke:#FFFFFF;stroke-width:0.5;stroke-miterlimit:10;}
</style>
<path class="st0" d="M16,3C8.8,3,3,8.8,3,16s5.8,13,13,13s13-5.8,13-13C29,8.8,23.2,3,16,3z M16,5c5.7,0,10.4,4.3,11,10h-3.4
	l-2.5,2.5L17.8,13L15,19.4L11.3,10l-3.8,5H5.1C5.6,9.3,10.3,5,16,5z M16,27c-5.7,0-10.4-4.3-10.9-10h3.4l2.2-3L15,24.6l3.3-7.6
	l2.6,3.5l3.5-3.5H27C26.4,22.7,21.7,27,16,27z"/>
</svg>
